<svg width="55" height="55" viewBox="0 0 55 55" fill="none" xmlns="http://www.w3.org/2000/svg">
<circle cx="27.5" cy="27.5" r="27.5" fill="white"/>
<path d="M28.0007 16.3378C26.3618 14.8344 24.2166 14.0001 21.9902 14C20.8118 14.0012 19.6453 14.2349 18.5578 14.6876C17.4702 15.1403 16.4832 15.8031 15.6534 16.6379C12.1143 20.1836 12.1158 25.7294 15.6564 29.2601L26.6846 40.2618C26.9403 40.7104 27.4336 41 28.0007 41C28.2335 40.9977 28.4626 40.941 28.6694 40.8345C28.8763 40.7279 29.0553 40.5744 29.1919 40.3863L40.3449 29.2601C43.8855 25.7279 43.8855 20.1836 40.3419 16.6319C39.5125 15.7987 38.5263 15.1372 37.4398 14.6856C36.3533 14.2339 35.1881 14.0009 34.0111 14C31.7847 14.0004 29.6397 14.8347 28.0007 16.3378ZM38.2151 18.7536C40.566 21.1109 40.5675 24.7931 38.2181 27.1384L28.0007 37.3313L17.7833 27.1384C15.4338 24.7931 15.4353 21.1109 17.7802 18.7596C18.9234 17.6252 20.4184 17.001 21.9902 17.001C23.562 17.001 25.0511 17.6252 26.1852 18.7566L26.9373 19.5068C27.0768 19.6463 27.2426 19.7569 27.425 19.8324C27.6075 19.9079 27.8031 19.9468 28.0007 19.9468C28.1982 19.9468 28.3938 19.9079 28.5763 19.8324C28.7587 19.7569 28.9245 19.6463 29.0641 19.5068L29.8161 18.7566C32.0903 16.4923 35.9439 16.4983 38.2151 18.7536Z" fill="red"/>
</svg>
